<svg width="345" height="208" viewBox="0 0 345 208" fill="none" xmlns="http://www.w3.org/2000/svg">
<rect width="345" height="208" fill="black"/>
<path fill-rule="evenodd" clip-rule="evenodd" d="M69.8251 87.6345C65 94.5 68.5 105.278 77 106.897C91.1201 109.586 86.2803 122.605 82.2769 120.628C81.6821 120.334 81.5546 119.59 81.6607 118.935C82.0132 116.761 81.8979 113.52 77.6681 114.729C74.776 115.555 74.421 119.716 76.0633 122.236C77.9905 125.192 81.8452 126.259 85.4731 125.201C88.8266 124.224 90.7574 120.761 90.8617 117.27C90.8902 116.318 90.908 115.076 90.9326 113.359C90.9497 112.16 90.9702 110.728 91 109C91.11 102.622 91 93.6575 91 93.6575C90.4332 87.617 85.3627 83 79.2957 83L74.1031 83H56C53.7909 83 52 84.7909 52 87V101.538C52 104.865 53.9251 111.663 61.6255 112.233H67.5078H73.0591C73.2419 112.233 73.3901 112.085 73.3901 111.902C73.3901 109.525 71.4634 107.599 69.0866 107.599H62.3385C60.4372 107.599 56.6345 106.387 56.6345 101.538V87.6345H69.8251ZM80 98C81.1046 98 82 97.1046 82 96C82 94.8955 81.1046 94 80 94C78.8954 94 78 94.8955 78 96C78 97.1046 78.8954 98 80 98Z" fill="white"/>
<path d="M101.049 111.8V90.8H109.599C111.679 90.8 113.279 91.29 114.399 92.27C115.519 93.23 116.079 94.56 116.079 96.26C116.079 98.32 115.079 99.8 113.079 100.7C114.179 101.16 115.029 101.83 115.629 102.71C116.229 103.57 116.529 104.59 116.529 105.77C116.529 107.61 115.939 109.08 114.759 110.18C113.579 111.26 111.879 111.8 109.659 111.8H101.049ZM103.509 99.71H109.299C110.659 99.71 111.699 99.42 112.419 98.84C113.139 98.26 113.499 97.43 113.499 96.35C113.499 94.09 112.099 92.96 109.299 92.96H103.509V99.71ZM103.509 109.61H109.419C110.919 109.61 112.049 109.26 112.809 108.56C113.589 107.84 113.979 106.87 113.979 105.65C113.979 104.49 113.579 103.58 112.779 102.92C111.979 102.24 110.859 101.9 109.419 101.9H103.509V109.61Z" fill="white"/>
<path d="M120.435 111.8V90.8H122.835V111.8H120.435Z" fill="white"/>
<path d="M139.735 110.03C139.895 110.03 140.065 110.01 140.245 109.97V112.01C139.945 112.07 139.605 112.1 139.225 112.1C138.485 112.1 137.865 111.92 137.365 111.56C136.865 111.18 136.565 110.65 136.465 109.97C135.425 111.39 133.825 112.1 131.665 112.1C130.145 112.1 128.905 111.72 127.945 110.96C127.005 110.2 126.535 109.15 126.535 107.81C126.535 106.49 126.995 105.48 127.915 104.78C128.835 104.08 129.985 103.66 131.365 103.52L136.435 102.95V102.68C136.435 101.54 136.095 100.66 135.415 100.04C134.735 99.42 133.855 99.1101 132.775 99.1101C131.895 99.1101 131.145 99.34 130.525 99.8C129.925 100.24 129.525 100.84 129.325 101.6L127.195 101.12C127.515 99.8201 128.195 98.83 129.235 98.15C130.275 97.47 131.495 97.13 132.895 97.13C134.715 97.13 136.155 97.61 137.215 98.57C138.295 99.51 138.835 100.86 138.835 102.62V109.16C138.835 109.74 139.135 110.03 139.735 110.03ZM132.445 110.18C133.665 110.1 134.635 109.69 135.355 108.95C136.075 108.19 136.435 107.16 136.435 105.86V104.84L131.755 105.38C129.875 105.58 128.935 106.38 128.935 107.78C128.935 108.6 129.275 109.22 129.955 109.64C130.655 110.06 131.485 110.24 132.445 110.18Z" fill="white"/>
<path d="M149.791 112.1C147.711 112.1 145.981 111.41 144.601 110.03C143.221 108.65 142.531 106.86 142.531 104.66C142.531 102.46 143.211 100.66 144.571 99.26C145.951 97.84 147.691 97.13 149.791 97.13C151.351 97.13 152.721 97.51 153.901 98.27C155.081 99.01 155.851 100.03 156.211 101.33L154.081 102.08C153.881 101.24 153.391 100.57 152.611 100.07C151.831 99.57 150.921 99.3201 149.881 99.3201C148.481 99.3201 147.311 99.82 146.371 100.82C145.451 101.8 144.991 103.07 144.991 104.63C144.991 106.21 145.451 107.49 146.371 108.47C147.311 109.45 148.491 109.94 149.911 109.94C150.931 109.94 151.831 109.69 152.611 109.19C153.391 108.67 153.881 107.99 154.081 107.15L156.211 107.87C155.851 109.19 155.081 110.23 153.901 110.99C152.721 111.73 151.351 112.1 149.791 112.1Z" fill="white"/>
<path d="M159.605 111.8V90.8H162.005L161.849 101.3L168.349 97.3L171.349 98.3L165.349 101.8L172.625 111.8H169.805L163.349 103.3L161.849 104.3L162.005 111.8H159.605Z" fill="white"/>
<path d="M171.029 111.8V98.3L185.489 90.8V95.24L176.077 95.6818L175.949 95.7482V99.05H184.889V103.49H175.949V107.36H185.729V111.8H171.029Z" fill="white"/>
<path d="M188.484 111.8V90.8C191.135 90.8 193.284 92.9491 193.284 95.6V111.8H188.484Z" fill="white"/>
<path d="M203.33 112.13C201.05 112.13 199.16 111.42 197.66 110C196.16 108.56 195.41 106.69 195.41 104.39C195.41 102.11 196.15 100.25 197.63 98.81C199.13 97.37 200.98 96.6501 203.18 96.6501C205.34 96.6501 207.13 97.3301 208.55 98.6901C209.97 100.03 210.68 101.8 210.68 104C210.68 104.4 210.65 104.9 210.59 105.5H200.24C200.4 106.44 200.75 107.15 201.29 107.63C201.85 108.11 202.52 108.35 203.3 108.35C203.96 108.35 204.53 108.19 205.01 107.87C205.49 107.53 205.79 107.08 205.91 106.52L210.08 107.63C209.68 109.11 208.86 110.23 207.62 110.99C206.4 111.75 204.97 112.13 203.33 112.13ZM200.39 102.5H206.09C205.97 101.96 205.65 101.49 205.13 101.09C204.63 100.67 203.99 100.46 203.21 100.46C201.81 100.46 200.87 101.14 200.39 102.5Z" fill="white"/>
<path d="M221.891 96.6501C223.931 96.6501 225.661 97.3801 227.081 98.84C228.501 100.28 229.211 102.13 229.211 104.39C229.211 106.61 228.511 108.45 227.111 109.91C225.711 111.37 223.981 112.1 221.921 112.1C220.161 112.1 218.721 111.56 217.601 110.48V117.8H212.801V96.95H216.311C217.023 96.95 217.601 97.5276 217.601 98.24C218.701 97.18 220.131 96.6501 221.891 96.6501ZM220.931 107.93C221.851 107.93 222.631 107.61 223.271 106.97C223.911 106.31 224.231 105.45 224.231 104.39C224.231 103.31 223.911 102.45 223.271 101.81C222.651 101.15 221.871 100.82 220.931 100.82C219.971 100.82 219.171 101.15 218.531 101.81C217.911 102.45 217.601 103.31 217.601 104.39C217.601 105.45 217.911 106.31 218.531 106.97C219.171 107.61 219.971 107.93 220.931 107.93Z" fill="white"/>
<path d="M240.166 96.6501C241.846 96.6501 243.216 97.14 244.276 98.12C245.356 99.1 245.896 100.47 245.896 102.23V111.8H241.096V103.7C241.096 102.8 240.876 102.13 240.436 101.69C239.996 101.23 239.396 101 238.636 101C237.876 101 237.266 101.24 236.806 101.72C236.366 102.2 236.146 102.9 236.146 103.82V111.8H231.346V90.8C233.996 90.8 236.146 92.9491 236.146 95.6001V98.18C237.126 97.16 238.466 96.6501 240.166 96.6501Z" fill="white"/>
<path d="M262.519 107.96C262.679 107.96 262.909 107.91 263.209 107.81V111.86C262.789 112.02 262.199 112.1 261.439 112.1C259.519 112.1 258.219 111.56 257.539 110.48C256.499 111.56 255.009 112.1 253.069 112.1C251.549 112.1 250.309 111.7 249.349 110.9C248.409 110.1 247.939 109 247.939 107.6C247.939 106.3 248.369 105.25 249.229 104.45C250.089 103.65 251.249 103.18 252.709 103.04L256.999 102.65V102.35C256.999 101.77 256.799 101.31 256.399 100.97C255.999 100.61 255.489 100.43 254.869 100.43C253.749 100.43 253.079 100.97 252.859 102.05L248.569 101.45C248.829 99.7701 249.569 98.55 250.789 97.7901C252.029 97.0301 253.509 96.6501 255.229 96.6501C257.269 96.6501 258.869 97.14 260.029 98.12C261.209 99.08 261.799 100.45 261.799 102.23V107.15C261.799 107.69 262.039 107.96 262.519 107.96ZM256.999 105.98V105.65L254.179 105.98C253.699 106.04 253.319 106.2 253.039 106.46C252.759 106.7 252.619 106.99 252.619 107.33C252.619 107.73 252.789 108.04 253.129 108.26C253.489 108.48 253.939 108.58 254.479 108.56C255.199 108.52 255.799 108.28 256.279 107.84C256.759 107.4 256.999 106.78 256.999 105.98Z" fill="white"/>
<path d="M274.003 96.6501C275.683 96.6501 277.053 97.14 278.113 98.12C279.193 99.1 279.733 100.47 279.733 102.23V111.8H274.933V103.7C274.933 102.8 274.713 102.13 274.273 101.69C273.833 101.23 273.233 101 272.473 101C271.713 101 271.103 101.24 270.643 101.72C270.203 102.2 269.983 102.9 269.983 103.82V111.8H265.183V96.95H269.983V98.18C270.963 97.16 272.303 96.6501 274.003 96.6501Z" fill="white"/>
<path d="M290.177 112.1C288.477 112.1 287.037 111.64 285.857 110.72C284.697 109.8 284.117 108.35 284.117 106.37V101.03H281.447V96.95H283.307C283.847 96.3101 284.117 94.91 284.117 92.75H284.717C287.037 92.75 288.917 94.6305 288.917 96.95H293.147V101.03H288.917V106.1C288.917 107.48 289.647 108.17 291.107 108.17C291.787 108.17 292.387 108.05 292.907 107.81L293.507 111.53C292.487 111.91 291.377 112.1 290.177 112.1Z" fill="white"/>
</svg>
